<svg xmlns="http://www.w3.org/2000/svg" viewBox="0 0 19 10">
  <rect width="19" height="10" fill="#b22234"/>
  <g fill="#fff">
    <rect y="1" width="19" height="1"/>
    <rect y="3" width="19" height="1"/>
    <rect y="5" width="19" height="1"/>
    <rect y="7" width="19" height="1"/>
    <rect y="9" width="19" height="1"/>
  </g>
  <rect width="7.6" height="5.5" fill="#3c3b6e"/>
  <g fill="#fff" transform="scale(0.12)">
    <circle cx="8" cy="8" r="1.8"/>
    <circle cx="20" cy="8" r="1.8"/>
    <circle cx="32" cy="8" r="1.8"/>
    <circle cx="44" cy="8" r="1.8"/>
    <circle cx="56" cy="8" r="1.8"/>
    <circle cx="14" cy="16" r="1.8"/>
    <circle cx="26" cy="16" r="1.8"/>
    <circle cx="38" cy="16" r="1.8"/>
    <circle cx="50" cy="16" r="1.8"/>
    <circle cx="62" cy="16" r="1.8"/>
    <circle cx="8" cy="24" r="1.8"/>
    <circle cx="20" cy="24" r="1.8"/>
    <circle cx="32" cy="24" r="1.8"/>
    <circle cx="44" cy="24" r="1.8"/>
    <circle cx="56" cy="24" r="1.8"/>
  </g>
</svg>
